<?xml version="1.0" encoding="UTF-8" standalone="no"?>
<!-- Created with Inkscape (http://www.inkscape.org/) -->

<svg
   width="210mm"
   height="297mm"
   viewBox="0 0 210 297"
   version="1.1"
   id="svg34636"
   inkscape:version="1.1.2 (0a00cf5339, 2022-02-04)"
   sodipodi:docname="prueba_capas.svg"
   xmlns:inkscape="http://www.inkscape.org/namespaces/inkscape"
   xmlns:sodipodi="http://sodipodi.sourceforge.net/DTD/sodipodi-0.dtd"
   xmlns="http://www.w3.org/2000/svg"
   xmlns:svg="http://www.w3.org/2000/svg">
  <sodipodi:namedview
     id="namedview34638"
     pagecolor="#ffffff"
     bordercolor="#666666"
     borderopacity="1.0"
     inkscape:pageshadow="2"
     inkscape:pageopacity="0.0"
     inkscape:pagecheckerboard="0"
     inkscape:document-units="mm"
     showgrid="false"
     inkscape:zoom="0.69664703"
     inkscape:cx="90.433171"
     inkscape:cy="543.31675"
     inkscape:window-width="1866"
     inkscape:window-height="1016"
     inkscape:window-x="0"
     inkscape:window-y="0"
     inkscape:window-maximized="1"
     inkscape:current-layer="layer1" />
  <defs
     id="defs34633" />
  <g
     inkscape:label="Capa 1"
     inkscape:groupmode="layer"
     id="layer1">
    <ellipse
       style="fill:#ff0000;stroke-width:0.0743889"
       id="path37918-50"
       cx="10.445842"
       cy="3.2422562"
       rx="5.7833347"
       ry="5.6212134" />
    <ellipse
       style="fill:#ff0000;stroke-width:0.0743889"
       id="path37918-3-96"
       cx="18.418608"
       cy="3.5071526"
       rx="5.7833347"
       ry="5.6212134" />
    <rect
       style="fill:#ff0000;stroke-width:0.0496632"
       id="rect38221-30"
       width="11.317968"
       height="11.013016"
       x="9.8376293"
       y="-10.292639"
       ry="0"
       transform="matrix(0.7155093,0.6986032,-0.70256719,0.71161741,0,0)" />
    <ellipse
       style="fill:#ff0000;stroke-width:0.0743889"
       id="path37918-94"
       cx="163.88318"
       cy="14.256322"
       rx="5.7833347"
       ry="5.6212134" />
    <ellipse
       style="fill:#ff0000;stroke-width:0.0743889"
       id="path37918-3-33"
       cx="171.85596"
       cy="14.521218"
       rx="5.7833347"
       ry="5.6212134" />
    <ellipse
       style="fill:#ffff00;fill-opacity:1;stroke-width:1.065;stroke-miterlimit:4;stroke-dasharray:none;stroke:#000000;stroke-opacity:1"
       id="path39514"
       cx="103.93481"
       cy="136.78345"
       rx="43.612675"
       ry="43.502148" />
    <ellipse
       style="fill:#ffffff;fill-opacity:1;stroke-width:0.963;stroke:#000000;stroke-opacity:1;stroke-miterlimit:4;stroke-dasharray:none"
       id="path39749-9"
       cx="105.10393"
       cy="153.86981"
       rx="10.782319"
       ry="8.7004299" />
    <ellipse
       style="fill:#ff0000;stroke-width:0.0743889"
       id="path37918"
       cx="30.174805"
       cy="29.539421"
       rx="5.7833347"
       ry="5.6212134" />
    <ellipse
       style="fill:#ff0000;stroke-width:0.0743889"
       id="path37918-3"
       cx="38.147572"
       cy="29.804317"
       rx="5.7833347"
       ry="5.6212134" />
    <rect
       style="fill:#ff0000;stroke-width:0.0496632"
       id="rect38221"
       width="11.317968"
       height="11.013016"
       x="42.35313"
       y="-5.2594118"
       ry="0"
       transform="matrix(0.7155093,0.69860319,-0.7025672,0.71161741,0,0)" />
    <ellipse
       style="fill:#ff0000;stroke-width:0.0743889"
       id="path37918-7"
       cx="55.641495"
       cy="149.84328"
       rx="5.7833347"
       ry="5.6212134" />
    <ellipse
       style="fill:#ff0000;stroke-width:0.0743889"
       id="path37918-3-2"
       cx="63.614262"
       cy="150.10818"
       rx="5.7833347"
       ry="5.6212134" />
    <rect
       style="fill:#ff0000;stroke-width:0.0496632"
       id="rect38221-3"
       width="11.317968"
       height="11.013016"
       x="144.99879"
       y="63.029064"
       ry="0"
       transform="matrix(0.7155093,0.69860319,-0.7025672,0.71161741,0,0)" />
    <ellipse
       style="fill:#ff0000;stroke-width:0.0743889"
       id="path37918-4"
       cx="149.45096"
       cy="41.601589"
       rx="5.7833347"
       ry="5.6212134" />
    <ellipse
       style="fill:#ff0000;stroke-width:0.0743889"
       id="path37918-3-1"
       cx="157.42372"
       cy="41.866486"
       rx="5.7833347"
       ry="5.6212134" />
    <rect
       style="fill:#ff0000;stroke-width:0.0496632"
       id="rect38221-7"
       width="11.317968"
       height="11.013016"
       x="135.70804"
       y="-79.956673"
       ry="0"
       transform="matrix(0.7155093,0.69860319,-0.7025672,0.71161741,0,0)" />
    <ellipse
       style="fill:#ff0000;stroke-width:0.0743889"
       id="path37918-39"
       cx="122.29263"
       cy="93.209251"
       rx="5.7833347"
       ry="5.6212134" />
    <ellipse
       style="fill:#ff0000;stroke-width:0.0743889"
       id="path37918-3-5"
       cx="130.26538"
       cy="93.474152"
       rx="5.7833347"
       ry="5.6212134" />
    <rect
       style="fill:#ff0000;stroke-width:0.0496632"
       id="rect38221-8"
       width="11.317968"
       height="11.013016"
       x="152.63982"
       y="-24.057142"
       ry="0"
       transform="matrix(0.71550931,0.6986032,-0.7025672,0.71161741,0,0)" />
    <ellipse
       style="fill:#ff0000;stroke-width:0.0743889"
       id="path37918-0"
       cx="98.558372"
       cy="55.654022"
       rx="5.7833347"
       ry="5.6212134" />
    <ellipse
       style="fill:#ff0000;stroke-width:0.0743889"
       id="path37918-3-3"
       cx="106.53114"
       cy="55.918919"
       rx="5.7833347"
       ry="5.6212134" />
    <rect
       style="fill:#ff0000;stroke-width:0.0496632"
       id="rect38221-37"
       width="11.317968"
       height="11.013016"
       x="109.36436"
       y="-34.347603"
       ry="0"
       transform="matrix(0.7155093,0.69860319,-0.7025672,0.71161741,0,0)" />
    <ellipse
       style="fill:#ff0000;stroke-width:0;stroke:#000000;stroke-opacity:1;stroke-miterlimit:4;stroke-dasharray:none"
       id="path37918-6"
       cx="28.296225"
       cy="90.5952"
       rx="5.7833347"
       ry="5.6212134" />
    <ellipse
       style="fill:#ff0000;stroke-width:0;stroke:#000000;stroke-opacity:1;stroke-miterlimit:4;stroke-dasharray:none"
       id="path37918-3-0"
       cx="36.268993"
       cy="90.860092"
       rx="5.7833347"
       ry="5.6212134" />
    <rect
       style="fill:#ff0000;stroke-width:0;stroke:#000000;stroke-opacity:1;stroke-miterlimit:4;stroke-dasharray:none"
       id="rect38221-6"
       width="11.317968"
       height="11.013016"
       x="83.912727"
       y="39.739639"
       ry="0"
       transform="matrix(0.7155093,0.69860319,-0.7025672,0.71161741,0,0)" />
    <ellipse
       style="fill:#ff0000;stroke-width:0.0743889"
       id="path37918-2"
       cx="76.910034"
       cy="97.431511"
       rx="5.7833347"
       ry="5.6212134" />
    <ellipse
       style="fill:#ff0000;stroke-width:0.0743889"
       id="path37918-3-16"
       cx="84.882805"
       cy="97.696411"
       rx="5.7833347"
       ry="5.6212134" />
    <rect
       style="fill:#ff0000;stroke-width:0.0496632"
       id="rect38221-5"
       width="11.317968"
       height="11.013016"
       x="123.31074"
       y="10.668876"
       ry="0"
       transform="matrix(0.7155093,0.69860319,-0.7025672,0.71161741,0,0)" />
    <ellipse
       style="fill:#ff0000;stroke-width:0.0743889"
       id="path37918-1"
       cx="85.645332"
       cy="23.371412"
       rx="5.7833347"
       ry="5.6212134" />
    <ellipse
       style="fill:#ff0000;stroke-width:0.0743889"
       id="path37918-3-10"
       cx="93.618095"
       cy="23.636309"
       rx="5.7833347"
       ry="5.6212134" />
    <rect
       style="fill:#ff0000;stroke-width:0.0496632"
       id="rect38221-84"
       width="11.317968"
       height="11.013016"
       x="77.494026"
       y="-48.425232"
       ry="0"
       transform="matrix(0.7155093,0.69860319,-0.7025672,0.71161741,0,0)" />
    <ellipse
       style="fill:#ff0000;stroke-width:0.0743889"
       id="path37918-12"
       cx="150.21054"
       cy="210.61053"
       rx="5.7833347"
       ry="5.6212134" />
    <ellipse
       style="fill:#ff0000;stroke-width:0.0743889"
       id="path37918-3-7"
       cx="158.18332"
       cy="210.87544"
       rx="5.7833347"
       ry="5.6212134" />
    <rect
       style="fill:#ff0000;stroke-width:0.0496632"
       id="rect38221-4"
       width="11.317968"
       height="11.013016"
       x="254.99055"
       y="40.442013"
       ry="0"
       transform="matrix(0.7155093,0.69860319,-0.7025672,0.71161741,0,0)" />
    <ellipse
       style="fill:#ff0000;stroke-width:0.0743889"
       id="path37918-67"
       cx="10.825637"
       cy="226.94174"
       rx="5.7833347"
       ry="5.6212134" />
    <ellipse
       style="fill:#ff0000;stroke-width:0.0743889"
       id="path37918-3-8"
       cx="18.798403"
       cy="227.20663"
       rx="5.7833347"
       ry="5.6212134" />
    <rect
       style="fill:#ff0000;stroke-width:0.0496632"
       id="rect38221-1"
       width="11.317968"
       height="11.013016"
       x="167.27425"
       y="149.50357"
       ry="0"
       transform="matrix(0.7155093,0.69860319,-0.7025672,0.71161741,0,0)" />
    <ellipse
       style="fill:#ff0000;stroke-width:0.0743889"
       id="path37918-30"
       cx="97.418991"
       cy="173.39059"
       rx="5.7833347"
       ry="5.6212134" />
    <ellipse
       style="fill:#ff0000;stroke-width:0.0743889"
       id="path37918-3-9"
       cx="105.39175"
       cy="173.65549"
       rx="5.7833347"
       ry="5.6212134" />
    <rect
       style="fill:#ff0000;stroke-width:0.0496632"
       id="rect38221-61"
       width="11.317968"
       height="11.013016"
       x="191.27267"
       y="50.691299"
       ry="0"
       transform="matrix(0.7155093,0.69860319,-0.7025672,0.71161741,0,0)" />
    <ellipse
       style="fill:#ff0000;stroke-width:0.0743889"
       id="path37918-66"
       cx="71.972694"
       cy="234.15787"
       rx="5.7833347"
       ry="5.6212134" />
    <ellipse
       style="fill:#ff0000;stroke-width:0.0743889"
       id="path37918-3-39"
       cx="79.945465"
       cy="234.42276"
       rx="5.7833347"
       ry="5.6212134" />
    <rect
       style="fill:#ff0000;stroke-width:0.0496632"
       id="rect38221-9"
       width="11.317968"
       height="11.013016"
       x="215.85812"
       y="111.94865"
       ry="0"
       transform="matrix(0.7155093,0.69860319,-0.7025672,0.71161741,0,0)" />
    <ellipse
       style="fill:#ff0000;stroke-width:0.0743889"
       id="path37918-07"
       cx="30.954794"
       cy="156.6796"
       rx="5.7833347"
       ry="5.6212134" />
    <ellipse
       style="fill:#ff0000;stroke-width:0.0743889"
       id="path37918-3-07"
       cx="38.927559"
       cy="156.9445"
       rx="5.7833347"
       ry="5.6212134" />
    <rect
       style="fill:#ff0000;stroke-width:0.0496632"
       id="rect38221-11"
       width="11.317968"
       height="11.013016"
       x="132.23409"
       y="85.167061"
       ry="0"
       transform="matrix(0.7155093,0.69860319,-0.7025672,0.71161741,0,0)" />
    <ellipse
       style="fill:#ff0000;stroke-width:0.0743889"
       id="path37918-9"
       cx="158.56604"
       cy="88.316422"
       rx="5.7833347"
       ry="5.6212134" />
    <ellipse
       style="fill:#ff0000;stroke-width:0.0743889"
       id="path37918-3-52"
       cx="166.53882"
       cy="88.581322"
       rx="5.7833347"
       ry="5.6212134" />
    <rect
       style="fill:#ff0000;stroke-width:0.0496632"
       id="rect38221-0"
       width="11.317968"
       height="11.013016"
       x="175.01541"
       y="-52.899185"
       ry="0"
       transform="matrix(0.7155093,0.69860319,-0.7025672,0.71161741,0,0)" />
    <ellipse
       style="fill:#ff0000;stroke-width:0.0743889"
       id="path37918-91"
       cx="180.97397"
       cy="36.664249"
       rx="5.7833347"
       ry="5.6212134" />
    <ellipse
       style="fill:#ff0000;stroke-width:0.0743889"
       id="path37918-3-4"
       cx="188.94675"
       cy="36.929146"
       rx="5.7833347"
       ry="5.6212134" />
    <rect
       style="fill:#ff0000;stroke-width:0.0496632"
       id="rect38221-58"
       width="11.317968"
       height="11.013016"
       x="154.67184"
       y="-105.51186"
       ry="0"
       transform="matrix(0.7155093,0.69860319,-0.7025672,0.71161741,0,0)" />
    <ellipse
       style="fill:#ff0000;stroke-width:0.0743889"
       id="path37918-49"
       cx="130.46118"
       cy="68.187271"
       rx="5.7833347"
       ry="5.6212134" />
    <ellipse
       style="fill:#ff0000;stroke-width:0.0743889"
       id="path37918-3-44"
       cx="138.43394"
       cy="68.452164"
       rx="5.7833347"
       ry="5.6212134" />
    <rect
       style="fill:#ff0000;stroke-width:0.0496632"
       id="rect38221-00"
       width="11.317968"
       height="11.013016"
       x="140.87289"
       y="-47.667557"
       ry="0"
       transform="matrix(0.7155093,0.69860319,-0.7025672,0.71161741,0,0)" />
    <ellipse
       style="fill:#ff0000;stroke-width:0.0743889"
       id="path37918-56"
       cx="166.54175"
       cy="175.66936"
       rx="5.7833347"
       ry="5.6212134" />
    <ellipse
       style="fill:#ff0000;stroke-width:0.0743889"
       id="path37918-3-79"
       cx="174.51451"
       cy="175.93425"
       rx="5.7833347"
       ry="5.6212134" />
    <rect
       style="fill:#ff0000;stroke-width:0.0496632"
       id="rect38221-78"
       width="11.317968"
       height="11.013016"
       x="242.0634"
       y="4.031682"
       ry="0"
       transform="matrix(0.7155093,0.69860319,-0.7025672,0.71161741,0,0)" />
    <ellipse
       style="fill:#ff0000;stroke-width:0.0743889"
       id="path37918-16"
       cx="173.37807"
       cy="136.93024"
       rx="5.7833347"
       ry="5.6212134" />
    <ellipse
       style="fill:#ff0000;stroke-width:0.0743889"
       id="path37918-3-80"
       cx="181.35083"
       cy="137.19513"
       rx="5.7833347"
       ry="5.6212134" />
    <rect
       style="fill:#ff0000;stroke-width:0.0496632"
       id="rect38221-82"
       width="11.317968"
       height="11.013016"
       x="219.71106"
       y="-28.462902"
       ry="0"
       transform="matrix(0.7155093,0.69860319,-0.7025672,0.71161741,0,0)" />
    <ellipse
       style="fill:#ff0000;stroke-width:0.0743889"
       id="path37918-567"
       cx="136.91771"
       cy="171.87141"
       rx="5.7833347"
       ry="5.6212134" />
    <ellipse
       style="fill:#ff0000;stroke-width:0.0743889"
       id="path37918-3-35"
       cx="144.89047"
       cy="172.13631"
       rx="5.7833347"
       ry="5.6212134" />
    <rect
       style="fill:#ff0000;stroke-width:0.0496632"
       id="rect38221-45"
       width="11.317968"
       height="11.013016"
       x="218.31374"
       y="22.009939"
       ry="0"
       transform="matrix(0.7155093,0.69860319,-0.7025672,0.71161741,0,0)" />
    <ellipse
       style="fill:#ff0000;stroke-width:0.0743889"
       id="path37918-73"
       cx="117.54814"
       cy="220.48521"
       rx="5.7833347"
       ry="5.6212134" />
    <ellipse
       style="fill:#ff0000;stroke-width:0.0743889"
       id="path37918-3-93"
       cx="125.52091"
       cy="220.75012"
       rx="5.7833347"
       ry="5.6212134" />
    <rect
       style="fill:#ff0000;stroke-width:0.0496632"
       id="rect38221-19"
       width="11.317968"
       height="11.013016"
       x="238.6848"
       y="70.325958"
       ry="0"
       transform="matrix(0.7155093,0.69860319,-0.7025672,0.71161741,0,0)" />
    <ellipse
       style="fill:#ff0000;stroke-width:0.0743889"
       id="path37918-8"
       cx="56.78088"
       cy="195.03893"
       rx="5.7833347"
       ry="5.6212134" />
    <ellipse
       style="fill:#ff0000;stroke-width:0.0743889"
       id="path37918-3-23"
       cx="64.753647"
       cy="195.30383"
       rx="5.7833347"
       ry="5.6212134" />
    <rect
       style="fill:#ff0000;stroke-width:0.0496632"
       id="rect38221-2"
       width="11.317968"
       height="11.013016"
       x="177.5631"
       y="94.57148"
       ry="0"
       transform="matrix(0.7155093,0.69860319,-0.7025672,0.71161741,0,0)" />
    <ellipse
       style="fill:#ff0000;stroke-width:0.0743889"
       id="path37918-26"
       cx="42.728451"
       cy="261.50311"
       rx="5.7833347"
       ry="5.6212134" />
    <ellipse
       style="fill:#ff0000;stroke-width:0.0743889"
       id="path37918-3-00"
       cx="50.701218"
       cy="261.76801"
       rx="5.7833347"
       ry="5.6212134" />
    <rect
       style="fill:#ff0000;stroke-width:0.0496632"
       id="rect38221-31"
       width="11.317968"
       height="11.013016"
       x="214.25926"
       y="151.94518"
       ry="0"
       transform="matrix(0.7155093,0.69860319,-0.7025672,0.71161741,0,0)" />
    <ellipse
       style="fill:#ff0000;stroke-width:0.0743889"
       id="path37918-93"
       cx="108.81285"
       cy="264.16168"
       rx="5.7833347"
       ry="5.6212134" />
    <ellipse
       style="fill:#ff0000;stroke-width:0.0743889"
       id="path37918-3-45"
       cx="116.78561"
       cy="264.42657"
       rx="5.7833347"
       ry="5.6212134" />
    <rect
       style="fill:#ff0000;stroke-width:0.0496632"
       id="rect38221-25"
       width="11.317968"
       height="11.013016"
       x="263.15466"
       y="107.67995"
       ry="0"
       transform="matrix(0.7155093,0.69860319,-0.7025672,0.71161741,0,0)" />
    <ellipse
       style="fill:#ff0000;stroke-width:0.0743889"
       id="path37918-560"
       cx="166.92154"
       cy="253.90723"
       rx="5.7833347"
       ry="5.6212134" />
    <ellipse
       style="fill:#ff0000;stroke-width:0.0743889"
       id="path37918-3-43"
       cx="174.89432"
       cy="254.17212"
       rx="5.7833347"
       ry="5.6212134" />
    <rect
       style="fill:#ff0000;stroke-width:0.0496632"
       id="rect38221-619"
       width="11.317968"
       height="11.013016"
       x="297.30188"
       y="59.747128"
       ry="0"
       transform="matrix(0.7155093,0.69860319,-0.7025672,0.71161741,0,0)" />
    <ellipse
       style="fill:#ff0000;stroke-width:0.0743889"
       id="path37918-27"
       cx="60.199039"
       cy="49.577293"
       rx="5.7833347"
       ry="5.6212134" />
    <ellipse
       style="fill:#ff0000;stroke-width:0.0743889"
       id="path37918-3-77"
       cx="68.171806"
       cy="49.84219"
       rx="5.7833347"
       ry="5.6212134" />
    <rect
       style="fill:#ff0000;stroke-width:0.0496632"
       id="rect38221-93"
       width="11.317968"
       height="11.013016"
       x="77.797394"
       y="-11.897256"
       ry="0"
       transform="matrix(0.7155093,0.69860319,-0.7025672,0.71161741,0,0)" />
    <ellipse
       style="fill:#ff0000;stroke-width:0.0743889"
       id="path37918-71"
       cx="13.864"
       cy="128.57474"
       rx="5.7833347"
       ry="5.6212134" />
    <ellipse
       style="fill:#ff0000;stroke-width:0.0743889"
       id="path37918-3-800"
       cx="21.836767"
       cy="128.83963"
       rx="5.7833347"
       ry="5.6212134" />
    <rect
       style="fill:#ff0000;stroke-width:0.0496632"
       id="rect38221-24"
       width="11.317968"
       height="11.013016"
       x="100.32594"
       y="76.99733"
       ry="0"
       transform="matrix(0.7155093,0.69860319,-0.7025672,0.71161741,0,0)" />
    <ellipse
       style="fill:#ff0000;stroke-width:0.0743889"
       id="path37918-84"
       cx="13.484204"
       cy="50.716679"
       rx="5.7833347"
       ry="5.6212134" />
    <ellipse
       style="fill:#ff0000;stroke-width:0.0743889"
       id="path37918-3-13"
       cx="21.456972"
       cy="50.981575"
       rx="5.7833347"
       ry="5.6212134" />
    <rect
       style="fill:#ff0000;stroke-width:0.0496632"
       id="rect38221-247"
       width="11.317968"
       height="11.013016"
       x="45.354301"
       y="21.553635"
       ry="0"
       transform="matrix(0.7155093,0.69860319,-0.7025672,0.71161741,0,0)" />
    <ellipse
       style="fill:#ff0000;stroke-width:0.0743889"
       id="path37918-88"
       cx="122.86528"
       cy="15.775504"
       rx="5.7833347"
       ry="5.6212134" />
    <ellipse
       style="fill:#ff0000;stroke-width:0.0743889"
       id="path37918-3-442"
       cx="130.83804"
       cy="16.0404"
       rx="5.7833347"
       ry="5.6212134" />
    <rect
       style="fill:#ff0000;stroke-width:0.0496632"
       id="rect38221-71"
       width="11.317968"
       height="11.013016"
       x="98.644081"
       y="-79.862633"
       ry="0"
       transform="matrix(0.7155093,0.69860319,-0.7025672,0.71161741,0,0)" />
    <rect
       style="fill:#ff0000;stroke-width:0.0496632"
       id="rect38221-34"
       width="11.317968"
       height="11.013016"
       x="126.76624"
       y="-109.60532"
       ry="0"
       transform="matrix(0.7155093,0.69860319,-0.7025672,0.71161741,0,0)" />
    <ellipse
       style="fill:#ff0000;stroke-width:0.0743889"
       id="path37918-15"
       cx="70.073715"
       cy="68.187271"
       rx="5.7833347"
       ry="5.6212134" />
    <ellipse
       style="fill:#ff0000;stroke-width:0.0743889"
       id="path37918-3-55"
       cx="78.046486"
       cy="68.452164"
       rx="5.7833347"
       ry="5.6212134" />
    <rect
       style="fill:#ff0000;stroke-width:0.0496632"
       id="rect38221-13"
       width="11.317968"
       height="11.013016"
       x="97.89946"
       y="-5.4800296"
       ry="0"
       transform="matrix(0.7155093,0.69860319,-0.7025672,0.71161741,0,0)" />
    <ellipse
       style="fill:#ff0000;stroke-width:0.0743889"
       id="path37918-13"
       cx="187.81029"
       cy="89.076012"
       rx="5.7833347"
       ry="5.6212134" />
    <ellipse
       style="fill:#ff0000;stroke-width:0.0743889"
       id="path37918-3-83"
       cx="195.78307"
       cy="89.340912"
       rx="5.7833347"
       ry="5.6212134" />
    <rect
       style="fill:#ff0000;stroke-width:0.0496632"
       id="rect38221-780"
       width="11.317968"
       height="11.013016"
       x="196.36012"
       y="-72.786125"
       ry="0"
       transform="matrix(0.7155093,0.69860319,-0.7025672,0.71161741,0,0)" />
    <ellipse
       style="fill:#ff0000;stroke-width:0.0743889"
       id="path37918-99"
       cx="198.06476"
       cy="218.58624"
       rx="5.7833347"
       ry="5.6212134" />
    <ellipse
       style="fill:#ff0000;stroke-width:0.0743889"
       id="path37918-3-64"
       cx="206.03754"
       cy="218.85114"
       rx="5.7833347"
       ry="5.6212134" />
    <rect
       style="fill:#ff0000;stroke-width:0.0496632"
       id="rect38221-95"
       width="11.317968"
       height="11.013016"
       x="294.64853"
       y="12.71716"
       ry="0"
       transform="matrix(0.7155093,0.69860319,-0.7025672,0.71161741,0,0)" />
    <ellipse
       style="fill:#ff0000;stroke-width:0.0743889"
       id="path37918-25"
       cx="86.404922"
       cy="195.03893"
       rx="5.7833347"
       ry="5.6212134" />
    <ellipse
       style="fill:#ff0000;stroke-width:0.0743889"
       id="path37918-3-14"
       cx="94.377686"
       cy="195.30383"
       rx="5.7833347"
       ry="5.6212134" />
    <rect
       style="fill:#ff0000;stroke-width:0.0496632"
       id="rect38221-44"
       width="11.317968"
       height="11.013016"
       x="198.64439"
       y="73.87571"
       ry="0"
       transform="matrix(0.7155093,0.69860319,-0.7025672,0.71161741,0,0)" />
    <ellipse
       style="fill:#ff0000;stroke-width:0.0743889"
       id="path37918-48"
       cx="21.839703"
       cy="183.64507"
       rx="5.7833347"
       ry="5.6212134" />
    <ellipse
       style="fill:#ff0000;stroke-width:0.0743889"
       id="path37918-3-793"
       cx="29.812469"
       cy="183.90997"
       rx="5.7833347"
       ry="5.6212134" />
    <rect
       style="fill:#ff0000;stroke-width:0.0496632"
       id="rect38221-42"
       width="11.317968"
       height="11.013016"
       x="144.69289"
       y="110.82933"
       ry="0"
       transform="matrix(0.7155093,0.69860319,-0.7025672,0.71161741,0,0)" />
    <ellipse
       style="fill:#ff0000;stroke-width:0.0743889"
       id="path37918-09"
       cx="10.445842"
       cy="274.41617"
       rx="5.7833347"
       ry="5.6212134" />
    <ellipse
       style="fill:#ff0000;stroke-width:0.0743889"
       id="path37918-3-84"
       cx="18.418608"
       cy="274.68106"
       rx="5.7833347"
       ry="5.6212134" />
    <rect
       style="fill:#ff0000;stroke-width:0.0496632"
       id="rect38221-49"
       width="11.317968"
       height="11.013016"
       x="200.35846"
       y="183.73781"
       ry="0"
       transform="matrix(0.7155093,0.69860319,-0.7025672,0.71161741,0,0)" />
    <ellipse
       style="fill:#ff0000;stroke-width:0.0743889"
       id="path37918-72"
       cx="207.17986"
       cy="272.51718"
       rx="5.7833347"
       ry="5.6212134" />
    <ellipse
       style="fill:#ff0000;stroke-width:0.0743889"
       id="path37918-3-36"
       cx="215.15262"
       cy="272.78207"
       rx="5.7833347"
       ry="5.6212134" />
    <rect
       style="fill:#ff0000;stroke-width:0.0496632"
       id="rect38221-23"
       width="11.317968"
       height="11.013016"
       x="339.02579"
       y="44.937923"
       ry="0"
       transform="matrix(0.7155093,0.69860319,-0.7025672,0.71161741,0,0)" />
    <ellipse
       style="fill:#ff0000;stroke-width:0.0743889"
       id="path37918-51"
       cx="137.67729"
       cy="275.55554"
       rx="5.7833347"
       ry="5.6212134" />
    <ellipse
       style="fill:#ff0000;stroke-width:0.0743889"
       id="path37918-3-01"
       cx="145.65005"
       cy="275.82043"
       rx="5.7833347"
       ry="5.6212134" />
    <rect
       style="fill:#ff0000;stroke-width:0.0496632"
       id="rect38221-27"
       width="11.317968"
       height="11.013016"
       x="291.70047"
       y="95.667389"
       ry="0"
       transform="matrix(0.7155093,0.69860319,-0.7025672,0.71161741,0,0)" />
    <ellipse
       style="fill:#ff0000;stroke-width:0.0743889"
       id="path37918-480"
       cx="81.467583"
       cy="282.77167"
       rx="5.7833347"
       ry="5.6212134" />
    <ellipse
       style="fill:#ff0000;stroke-width:0.0743889"
       id="path37918-3-82"
       cx="89.440346"
       cy="283.03656"
       rx="5.7833347"
       ry="5.6212134" />
    <rect
       style="fill:#ff0000;stroke-width:0.0496632"
       id="rect38221-443"
       width="11.317968"
       height="11.013016"
       x="256.76993"
       y="140.09956"
       ry="0"
       transform="matrix(0.7155093,0.69860319,-0.7025672,0.71161741,0,0)" />
    <ellipse
       style="fill:#ff0000;stroke-width:0.0743889"
       id="path37918-45"
       cx="47.285995"
       cy="110.72435"
       rx="5.7833347"
       ry="5.6212134" />
    <ellipse
       style="fill:#ff0000;stroke-width:0.0743889"
       id="path37918-3-88"
       cx="55.258762"
       cy="110.98925"
       rx="5.7833347"
       ry="5.6212134" />
    <rect
       style="fill:#ff0000;stroke-width:0.0496632"
       id="rect38221-81"
       width="11.317968"
       height="11.013016"
       x="111.56869"
       y="40.875942"
       ry="0"
       transform="matrix(0.7155093,0.69860319,-0.7025672,0.71161741,0,0)" />
    <ellipse
       style="fill:#ff0000;stroke-width:0.0743889"
       id="path37918-39-3"
       cx="82.917038"
       cy="121.83632"
       rx="5.7833347"
       ry="5.6212134" />
    <ellipse
       style="fill:#ff0000;stroke-width:0.0743889"
       id="path37918-3-5-6"
       cx="90.889786"
       cy="122.10122"
       rx="5.7833347"
       ry="5.6212134" />
    <rect
       style="fill:#ff0000;stroke-width:0.0496632"
       id="rect38221-8-7"
       width="11.317968"
       height="11.013016"
       x="144.73177"
       y="23.934446"
       ry="0"
       transform="matrix(0.7155093,0.69860321,-0.7025672,0.71161741,0,0)" />
    <ellipse
       style="fill:#ff0000;stroke-width:0.0743889"
       id="path37918-6-5"
       cx="116.71883"
       cy="122.59592"
       rx="5.7833347"
       ry="5.6212134" />
    <ellipse
       style="fill:#ff0000;stroke-width:0.0743889"
       id="path37918-3-0-4"
       cx="124.6916"
       cy="122.86081"
       rx="5.7833347"
       ry="5.6212134" />
    <rect
       style="fill:#ff0000;stroke-width:0.0496632"
       id="rect38221-6-7"
       width="11.317968"
       height="11.013016"
       x="169.31975"
       y="0.86353946"
       ry="0"
       transform="matrix(0.7155093,0.69860321,-0.7025672,0.71161741,0,0)" />
    <path
       style="fill:#ff0a00;fill-opacity:1;stroke:none;stroke-width:100;stroke-miterlimit:4;stroke-dasharray:none;stroke-opacity:1"
       id="path2656"
       sodipodi:type="arc"
       sodipodi:cx="-69.646683"
       sodipodi:cy="-176.20474"
       sodipodi:rx="8.8284054"
       sodipodi:ry="5.7789259"
       sodipodi:start="0.71478409"
       sodipodi:end="2.8457552"
       sodipodi:arc-type="slice"
       d="m -62.979164,-172.41692 a 8.8284054,5.7789259 0 0 1 -8.503339,1.86478 8.8284054,5.7789259 0 0 1 -6.609064,-3.96781 l 8.444884,-1.68479 z"
       transform="matrix(-0.99044992,0.13787296,-0.20393864,-0.97898367,0,0)" />
  </g>
</svg>
